<svg width="56" height="48" viewBox="0 0 56 48" fill="none" xmlns="http://www.w3.org/2000/svg">
<g filter="url(#filter0_d_871_1379)">
<rect x="2" width="52" height="44" rx="9" fill="white"/>
<path d="M33.0502 30.28C32.0702 31.23 31.0002 31.08 29.9702 30.63C28.8802 30.17 27.8802 30.15 26.7302 30.63C25.2902 31.25 24.5302 31.07 23.6702 30.28C18.7902 25.25 19.5102 17.59 25.0502 17.31C26.4002 17.38 27.3402 18.05 28.1302 18.11C29.3102 17.87 30.4402 17.18 31.7002 17.27C33.2102 17.39 34.3502 17.99 35.1002 19.07C31.9802 20.94 32.7202 25.05 35.5802 26.2C35.0102 27.7 34.2702 29.19 33.0402 30.29L33.0502 30.28ZM28.0302 17.25C27.8802 15.02 29.6902 13.18 31.7702 13C32.0602 15.58 29.4302 17.5 28.0302 17.25Z" fill="black"/>
</g>
<defs>
<filter id="filter0_d_871_1379" x="0" y="0" width="56" height="48" filterUnits="userSpaceOnUse" color-interpolation-filters="sRGB">
<feFlood flood-opacity="0" result="BackgroundImageFix"/>
<feColorMatrix in="SourceAlpha" type="matrix" values="0 0 0 0 0 0 0 0 0 0 0 0 0 0 0 0 0 0 127 0" result="hardAlpha"/>
<feOffset dy="2"/>
<feGaussianBlur stdDeviation="1"/>
<feComposite in2="hardAlpha" operator="out"/>
<feColorMatrix type="matrix" values="0 0 0 0 0 0 0 0 0 0 0 0 0 0 0 0 0 0 0.25 0"/>
<feBlend mode="normal" in2="BackgroundImageFix" result="effect1_dropShadow_871_1379"/>
<feBlend mode="normal" in="SourceGraphic" in2="effect1_dropShadow_871_1379" result="shape"/>
</filter>
</defs>
</svg>
