<svg width="96" height="96" viewBox="0 0 96 96" fill="none" xmlns="http://www.w3.org/2000/svg">
<rect width="96" height="96" rx="48" fill="#D4E8D3"/>
<path d="M48 68V36C48 32.228 48 30.344 46.828 29.172C45.656 28 43.772 28 40 28H36C32.228 28 30.344 28 29.172 29.172C28 30.344 28 32.228 28 36V60C28 63.772 28 65.656 29.172 66.828C30.344 68 32.228 68 36 68H48ZM48 68H60C63.772 68 65.656 68 66.828 66.828C68 65.656 68 63.772 68 60V48C68 44.228 68 42.344 66.828 41.172C65.656 40 63.772 40 60 40H48" stroke="#367E34" stroke-width="3"/>
<path d="M61 56H55M61 48H55M41 52H35M41 44H35M41 36H35" stroke="#367E34" stroke-width="3" stroke-linecap="round"/>
</svg>
