<svg width="64" height="64" viewBox="0 0 64 64" fill="none" xmlns="http://www.w3.org/2000/svg">
<g clip-path="url(#clip0_1653_659)">
<path d="M60 5.99302L43.986 5.99308V2.00708C43.986 0.90208 43.091 0.00708008 41.986 0.00708008C40.881 0.00708008 39.986 0.90208 39.986 2.00708V5.99208H23.986V2.00708C23.986 0.90208 23.091 0.00708008 21.986 0.00708008C20.881 0.00708008 19.986 0.90208 19.986 2.00708V5.99208H4C1.791 5.99208 0 7.78308 0 9.99208V59.9921C0 62.201 1.791 63.9921 4 63.9921H60C62.209 63.9921 64 62.201 64 59.9921V9.99208C64 7.78402 62.209 5.99302 60 5.99302ZM60 59.9921H4V9.99208H19.986V12.0071C19.986 13.112 20.881 14.0071 21.986 14.0071C23.091 14.0071 23.986 13.112 23.986 12.0071V9.99308H39.986V12.0081C39.986 13.1131 40.881 14.0081 41.986 14.0081C43.091 14.0081 43.986 13.1131 43.986 12.0081V9.99308H60V59.9921ZM46 31.993H50C51.104 31.993 52 31.097 52 29.993V25.993C52 24.889 51.104 23.993 50 23.993H46C44.896 23.993 44 24.889 44 25.993V29.993C44 31.097 44.896 31.993 46 31.993ZM46 47.992H50C51.104 47.992 52 47.097 52 45.992V41.992C52 40.888 51.104 39.992 50 39.992H46C44.896 39.992 44 40.888 44 41.992V45.992C44 47.098 44.896 47.992 46 47.992ZM34 39.992H30C28.896 39.992 28 40.888 28 41.992V45.992C28 47.097 28.896 47.992 30 47.992H34C35.104 47.992 36 47.097 36 45.992V41.992C36 40.889 35.104 39.992 34 39.992ZM34 23.993H30C28.896 23.993 28 24.889 28 25.993V29.993C28 31.097 28.896 31.993 30 31.993H34C35.104 31.993 36 31.097 36 29.993V25.993C36 24.888 35.104 23.993 34 23.993ZM18 23.993H14C12.896 23.993 12 24.889 12 25.993V29.993C12 31.097 12.896 31.993 14 31.993H18C19.104 31.993 20 31.097 20 29.993V25.993C20 24.888 19.104 23.993 18 23.993ZM18 39.992H14C12.896 39.992 12 40.888 12 41.992V45.992C12 47.097 12.896 47.992 14 47.992H18C19.104 47.992 20 47.097 20 45.992V41.992C20 40.889 19.104 39.992 18 39.992Z" fill="#150106" fill-opacity="0.5"/>
</g>
<defs>
<clipPath id="clip0_1653_659">
<rect width="64" height="64" fill="white"/>
</clipPath>
</defs>
</svg>
