<svg width="56" height="48" viewBox="0 0 56 48" fill="none" xmlns="http://www.w3.org/2000/svg">
<g filter="url(#filter0_d_871_1389)">
<rect x="2" width="52" height="44" rx="9" fill="white"/>
<g clip-path="url(#clip0_871_1389)">
<path d="M34.375 10H21.625C18.5184 10 16 12.5184 16 15.625V28.375C16 31.4816 18.5184 34 21.625 34H34.375C37.4816 34 40 31.4816 40 28.375V15.625C40 12.5184 37.4816 10 34.375 10Z" fill="url(#paint0_radial_871_1389)"/>
<path d="M34.375 10H21.625C18.5184 10 16 12.5184 16 15.625V28.375C16 31.4816 18.5184 34 21.625 34H34.375C37.4816 34 40 31.4816 40 28.375V15.625C40 12.5184 37.4816 10 34.375 10Z" fill="url(#paint1_radial_871_1389)"/>
<path d="M28.0008 12.625C25.4548 12.625 25.1352 12.6362 24.1353 12.6816C23.1372 12.7274 22.4559 12.8853 21.8598 13.1172C21.2432 13.3566 20.7201 13.677 20.1991 14.1982C19.6775 14.7194 19.3572 15.2424 19.117 15.8588C18.8845 16.4551 18.7263 17.1366 18.6814 18.1342C18.6367 19.1342 18.625 19.4539 18.625 22.0001C18.625 24.5463 18.6363 24.8648 18.6816 25.8647C18.7276 26.8628 18.8855 27.5441 19.1172 28.1402C19.3568 28.7568 19.6772 29.2799 20.1984 29.8009C20.7194 30.3225 21.2424 30.6436 21.8586 30.883C22.4552 31.1148 23.1365 31.2728 24.1344 31.3186C25.1344 31.364 25.4538 31.3752 27.9997 31.3752C30.5461 31.3752 30.8646 31.364 31.8646 31.3186C32.8626 31.2728 33.5447 31.1148 34.1412 30.883C34.7576 30.6436 35.2799 30.3225 35.8007 29.8009C36.3223 29.2799 36.6425 28.7568 36.8828 28.1404C37.1133 27.5441 37.2715 26.8626 37.3184 25.8649C37.3633 24.865 37.375 24.5463 37.375 22.0001C37.375 19.4539 37.3633 19.1344 37.3184 18.1344C37.2715 17.1363 37.1133 16.4552 36.8828 15.8591C36.6425 15.2424 36.3223 14.7194 35.8007 14.1982C35.2793 13.6768 34.7578 13.3564 34.1406 13.1173C33.543 12.8853 32.8613 12.7273 31.8632 12.6816C30.8632 12.6362 30.5448 12.625 27.9979 12.625H28.0008ZM27.1598 14.3145C27.4095 14.3141 27.688 14.3145 28.0008 14.3145C30.5041 14.3145 30.8007 14.3235 31.7892 14.3684C32.7032 14.4102 33.1994 14.5629 33.5298 14.6913C33.9674 14.8611 34.2793 15.0643 34.6072 15.3925C34.9353 15.7206 35.1384 16.0331 35.3088 16.4706C35.4371 16.8006 35.59 17.2968 35.6316 18.2108C35.6765 19.1991 35.6863 19.4959 35.6863 21.9979C35.6863 24.4999 35.6765 24.7968 35.6316 25.7851C35.5898 26.6991 35.4371 27.1952 35.3088 27.5253C35.1389 27.9629 34.9353 28.2744 34.6072 28.6023C34.2791 28.9305 33.9676 29.1335 33.5298 29.3035C33.1997 29.4324 32.7032 29.5848 31.7892 29.6266C30.8009 29.6715 30.5041 29.6812 28.0008 29.6812C25.4975 29.6812 25.2008 29.6715 24.2126 29.6266C23.2985 29.5844 22.8024 29.4317 22.4717 29.3033C22.0342 29.1333 21.7217 28.9303 21.3935 28.6022C21.0654 28.274 20.8623 27.9623 20.692 27.5246C20.5637 27.1945 20.4108 26.6984 20.3691 25.7843C20.3242 24.796 20.3152 24.4992 20.3152 21.9956C20.3152 19.492 20.3242 19.1968 20.3691 18.2085C20.4109 17.2944 20.5637 16.7983 20.692 16.4678C20.862 16.0303 21.0654 15.7178 21.3936 15.3897C21.7218 15.0616 22.0342 14.8584 22.4717 14.6882C22.8022 14.5592 23.2985 14.4069 24.2126 14.3649C25.0774 14.3258 25.4126 14.3141 27.1598 14.3121V14.3145ZM33.0052 15.8711C32.3841 15.8711 31.8802 16.3745 31.8802 16.9957C31.8802 17.6168 32.3841 18.1207 33.0052 18.1207C33.6263 18.1207 34.1302 17.6168 34.1302 16.9957C34.1302 16.3746 33.6263 15.8707 33.0052 15.8707V15.8711ZM28.0008 17.1856C25.3421 17.1856 23.1864 19.3413 23.1864 22.0001C23.1864 24.6589 25.3421 26.8136 28.0008 26.8136C30.6597 26.8136 32.8146 24.6589 32.8146 22.0001C32.8146 19.3413 30.6595 17.1856 28.0007 17.1856H28.0008ZM28.0008 18.875C29.7267 18.875 31.1259 20.2741 31.1259 22.0001C31.1259 23.7259 29.7267 25.1252 28.0008 25.1252C26.275 25.1252 24.8759 23.7259 24.8759 22.0001C24.8759 20.2741 26.2749 18.875 28.0008 18.875Z" fill="white"/>
</g>
</g>
<defs>
<filter id="filter0_d_871_1389" x="0" y="0" width="56" height="48" filterUnits="userSpaceOnUse" color-interpolation-filters="sRGB">
<feFlood flood-opacity="0" result="BackgroundImageFix"/>
<feColorMatrix in="SourceAlpha" type="matrix" values="0 0 0 0 0 0 0 0 0 0 0 0 0 0 0 0 0 0 127 0" result="hardAlpha"/>
<feOffset dy="2"/>
<feGaussianBlur stdDeviation="1"/>
<feComposite in2="hardAlpha" operator="out"/>
<feColorMatrix type="matrix" values="0 0 0 0 0 0 0 0 0 0 0 0 0 0 0 0 0 0 0.25 0"/>
<feBlend mode="normal" in2="BackgroundImageFix" result="effect1_dropShadow_871_1389"/>
<feBlend mode="normal" in="SourceGraphic" in2="effect1_dropShadow_871_1389" result="shape"/>
</filter>
<radialGradient id="paint0_radial_871_1389" cx="0" cy="0" r="1" gradientUnits="userSpaceOnUse" gradientTransform="translate(22.375 35.8485) rotate(-90) scale(23.7858 22.1227)">
<stop stop-color="#FFDD55"/>
<stop offset="0.1" stop-color="#FFDD55"/>
<stop offset="0.5" stop-color="#FF543E"/>
<stop offset="1" stop-color="#C837AB"/>
</radialGradient>
<radialGradient id="paint1_radial_871_1389" cx="0" cy="0" r="1" gradientUnits="userSpaceOnUse" gradientTransform="translate(11.9799 11.7288) rotate(78.681) scale(10.6324 43.827)">
<stop stop-color="#3771C8"/>
<stop offset="0.128" stop-color="#3771C8"/>
<stop offset="1" stop-color="#6600FF" stop-opacity="0"/>
</radialGradient>
<clipPath id="clip0_871_1389">
<rect width="24" height="24" fill="white" transform="translate(16 10)"/>
</clipPath>
</defs>
</svg>
