<svg width="96" height="96" viewBox="0 0 96 96" fill="none" xmlns="http://www.w3.org/2000/svg">
<rect width="96" height="96" rx="48" fill="#D4E8D3"/>
<path d="M66 48C66.0057 51.5735 64.9428 55.0671 62.948 58.032C61.3028 60.486 59.0783 62.4968 56.4711 63.8866C53.8639 65.2763 50.9545 66.0022 48 66C45.0455 66.0022 42.1361 65.2763 39.5289 63.8866C36.9217 62.4968 34.6972 60.486 33.052 58.032C31.4855 55.6968 30.4878 53.0271 30.139 50.2369C29.7902 47.4466 30.1 44.6135 31.0435 41.9645C31.987 39.3156 33.538 36.9246 35.5721 34.9831C37.6063 33.0416 40.067 31.6037 42.757 30.7847C45.447 29.9656 48.2915 29.7882 51.0625 30.2666C53.8334 30.745 56.4538 31.866 58.7134 33.5396C60.9731 35.2133 62.8092 37.393 64.0745 39.9042C65.3399 42.4153 65.9994 45.188 66 48Z" stroke="#367E34" stroke-width="3"/>
<path d="M50.5002 42C50.5002 43.38 49.3802 44.5 48.0002 44.5V47.5C49.4588 47.5 50.8578 46.9205 51.8892 45.8891C52.9207 44.8576 53.5002 43.4587 53.5002 42H50.5002ZM48.0002 44.5C46.6202 44.5 45.5002 43.38 45.5002 42H42.5002C42.5002 43.4587 43.0796 44.8576 44.1111 45.8891C45.1425 46.9205 46.5415 47.5 48.0002 47.5V44.5ZM45.5002 42C45.5002 40.62 46.6202 39.5 48.0002 39.5V36.5C46.5415 36.5 45.1425 37.0795 44.1111 38.1109C43.0796 39.1424 42.5002 40.5413 42.5002 42H45.5002ZM48.0002 39.5C49.3802 39.5 50.5002 40.62 50.5002 42H53.5002C53.5002 40.5413 52.9207 39.1424 51.8892 38.1109C50.8578 37.0795 49.4588 36.5 48.0002 36.5V39.5ZM34.3322 59.712L32.8942 59.284L32.6602 60.068L33.1942 60.688L34.3322 59.712ZM61.6682 59.712L62.8082 60.69L63.3402 60.07L63.1062 59.284L61.6682 59.712ZM42.0002 55.5H54.0002V52.5H42.0002V55.5ZM42.0002 52.5C39.9542 52.4995 37.9627 53.1594 36.322 54.3818C34.6813 55.6041 33.4791 57.3234 32.8942 59.284L35.7702 60.14C36.1707 58.7989 36.9933 57.623 38.1158 56.787C39.2382 55.951 40.6006 55.4996 42.0002 55.5V52.5ZM48.0002 64.5C45.619 64.5027 43.2656 63.9888 41.1023 62.9937C38.9391 61.9985 37.0175 60.5459 35.4702 58.736L33.1942 60.688C35.0231 62.826 37.2938 64.5439 39.8499 65.7196C42.406 66.8952 45.1867 67.5027 48.0002 67.5V64.5ZM54.0002 55.5C56.9402 55.5 59.4302 57.456 60.2302 60.14L63.1062 59.284C62.5212 57.3234 61.319 55.6041 59.6783 54.3818C58.0376 53.1594 56.0461 52.4995 54.0002 52.5V55.5ZM60.5302 58.736C58.9828 60.5459 57.0612 61.9985 54.898 62.9937C52.7347 63.9888 50.3813 64.5027 48.0002 64.5V67.5C50.8137 67.5027 53.5943 66.8952 56.1504 65.7196C58.7065 64.5439 60.9792 62.828 62.8082 60.69L60.5302 58.736Z" fill="#367E34"/>
</svg>
