<svg width="402" height="70" viewBox="0 0 402 70" fill="none" xmlns="http://www.w3.org/2000/svg">
<path d="M159.048 40.1299C158.351 40.1299 157.747 39.9772 157.236 39.6719C156.73 39.362 156.339 38.9222 156.061 38.3525C155.787 37.7829 155.65 37.1061 155.65 36.3223V36.3086C155.65 35.5202 155.787 34.8411 156.061 34.2715C156.339 33.7018 156.73 33.2643 157.236 32.959C157.747 32.6536 158.351 32.501 159.048 32.501C159.75 32.501 160.354 32.6536 160.859 32.959C161.365 33.2643 161.755 33.7018 162.028 34.2715C162.306 34.8411 162.445 35.5202 162.445 36.3086V36.3223C162.445 37.1061 162.306 37.7829 162.028 38.3525C161.755 38.9222 161.365 39.362 160.859 39.6719C160.354 39.9772 159.75 40.1299 159.048 40.1299ZM159.048 39.0771C159.513 39.0771 159.907 38.9678 160.23 38.749C160.554 38.5303 160.8 38.2158 160.969 37.8057C161.142 37.3955 161.229 36.901 161.229 36.3223V36.3086C161.229 35.7253 161.142 35.2285 160.969 34.8184C160.8 34.4082 160.554 34.096 160.23 33.8818C159.907 33.6631 159.513 33.5537 159.048 33.5537C158.583 33.5537 158.189 33.6631 157.865 33.8818C157.542 34.096 157.293 34.4082 157.12 34.8184C156.951 35.2285 156.867 35.7253 156.867 36.3086V36.3223C156.867 36.901 156.951 37.3955 157.12 37.8057C157.293 38.2158 157.542 38.5303 157.865 38.749C158.189 38.9678 158.583 39.0771 159.048 39.0771ZM164.291 40V32.6309H165.48V33.7246H165.59C165.731 33.3372 165.97 33.0365 166.308 32.8223C166.645 32.6081 167.062 32.501 167.559 32.501C167.673 32.501 167.784 32.5078 167.894 32.5215C168.007 32.5306 168.094 32.5397 168.153 32.5488V33.7041C168.03 33.6813 167.91 33.6654 167.791 33.6562C167.677 33.6426 167.554 33.6357 167.422 33.6357C167.044 33.6357 166.709 33.7109 166.417 33.8613C166.125 34.0117 165.895 34.2214 165.727 34.4902C165.562 34.7591 165.48 35.0736 165.48 35.4336V40H164.291ZM176.09 40.1299C175.543 40.1299 175.06 40.0479 174.641 39.8838C174.221 39.7152 173.884 39.4805 173.629 39.1797C173.378 38.8789 173.23 38.5257 173.185 38.1201H174.401C174.502 38.4255 174.698 38.6715 174.989 38.8584C175.281 39.0452 175.661 39.1387 176.131 39.1387C176.464 39.1387 176.755 39.0908 177.006 38.9951C177.261 38.8949 177.462 38.7604 177.607 38.5918C177.753 38.4186 177.826 38.2204 177.826 37.9971V37.9834C177.826 37.7327 177.726 37.5208 177.525 37.3477C177.325 37.1699 176.997 37.0264 176.541 36.917L175.399 36.6436C174.939 36.5342 174.561 36.3929 174.265 36.2197C173.968 36.042 173.75 35.8255 173.608 35.5703C173.467 35.3105 173.396 35.0052 173.396 34.6543V34.6475C173.396 34.2373 173.515 33.8704 173.752 33.5469C173.993 33.2233 174.322 32.9681 174.736 32.7812C175.151 32.5944 175.618 32.501 176.138 32.501C176.653 32.501 177.108 32.583 177.505 32.7471C177.906 32.9066 178.227 33.1344 178.469 33.4307C178.715 33.7269 178.865 34.0755 178.92 34.4766H177.751C177.674 34.1849 177.496 33.9479 177.218 33.7656C176.94 33.5833 176.577 33.4922 176.131 33.4922C175.839 33.4922 175.579 33.54 175.352 33.6357C175.124 33.7269 174.944 33.8545 174.812 34.0186C174.679 34.1826 174.613 34.374 174.613 34.5928V34.6064C174.613 34.7705 174.657 34.9163 174.743 35.0439C174.83 35.1715 174.964 35.2832 175.146 35.3789C175.329 35.4746 175.563 35.5589 175.851 35.6318L176.985 35.9053C177.678 36.0739 178.193 36.3154 178.53 36.6299C178.872 36.9443 179.043 37.3659 179.043 37.8945V37.9082C179.043 38.3457 178.913 38.7331 178.653 39.0703C178.394 39.403 178.04 39.6628 177.594 39.8496C177.152 40.0365 176.65 40.1299 176.09 40.1299ZM180.916 40V32.6309H182.105V40H180.916ZM181.518 31.209C181.294 31.209 181.101 31.1292 180.937 30.9697C180.777 30.8057 180.697 30.612 180.697 30.3887C180.697 30.1608 180.777 29.9671 180.937 29.8076C181.101 29.6481 181.294 29.5684 181.518 29.5684C181.745 29.5684 181.939 29.6481 182.099 29.8076C182.258 29.9671 182.338 30.1608 182.338 30.3887C182.338 30.612 182.258 30.8057 182.099 30.9697C181.939 31.1292 181.745 31.209 181.518 31.209ZM187.383 42.5977C186.79 42.5977 186.273 42.5133 185.831 42.3447C185.389 42.1807 185.036 41.946 184.771 41.6406C184.512 41.3398 184.35 40.9889 184.286 40.5879L184.3 40.5811H185.53L185.537 40.5879C185.601 40.8659 185.792 41.0938 186.111 41.2715C186.43 41.4538 186.854 41.5449 187.383 41.5449C188.044 41.5449 188.559 41.3945 188.928 41.0938C189.301 40.7975 189.488 40.3783 189.488 39.8359V38.3457H189.379C189.224 38.6146 189.03 38.8447 188.798 39.0361C188.565 39.2275 188.303 39.3734 188.012 39.4736C187.72 39.5693 187.406 39.6172 187.068 39.6172C186.435 39.6172 185.886 39.4668 185.421 39.166C184.961 38.8607 184.605 38.4414 184.354 37.9082C184.104 37.375 183.979 36.7643 183.979 36.0762V36.0625C183.979 35.3743 184.104 34.7637 184.354 34.2305C184.61 33.6927 184.97 33.2712 185.435 32.9658C185.899 32.6559 186.453 32.501 187.096 32.501C187.442 32.501 187.761 32.5557 188.053 32.665C188.344 32.7744 188.602 32.9294 188.825 33.1299C189.053 33.3304 189.242 33.5697 189.393 33.8477H189.475V32.6309H190.664V39.8975C190.664 40.4443 190.53 40.9206 190.261 41.3262C189.996 41.7318 189.618 42.0439 189.126 42.2627C188.634 42.486 188.053 42.5977 187.383 42.5977ZM187.328 38.5645C187.784 38.5645 188.174 38.4596 188.497 38.25C188.825 38.0358 189.076 37.7419 189.249 37.3682C189.427 36.9945 189.516 36.5638 189.516 36.0762V36.0625C189.516 35.5749 189.427 35.1419 189.249 34.7637C189.076 34.3854 188.825 34.0892 188.497 33.875C188.174 33.6608 187.784 33.5537 187.328 33.5537C186.872 33.5537 186.485 33.6608 186.166 33.875C185.852 34.0892 185.61 34.3854 185.441 34.7637C185.277 35.1419 185.195 35.5749 185.195 36.0625V36.0762C185.195 36.5638 185.277 36.9945 185.441 37.3682C185.61 37.7419 185.852 38.0358 186.166 38.25C186.485 38.4596 186.872 38.5645 187.328 38.5645ZM192.879 40V32.6309H194.068V33.7383H194.178C194.365 33.3464 194.633 33.0433 194.984 32.8291C195.335 32.6104 195.782 32.501 196.324 32.501C197.154 32.501 197.789 32.738 198.231 33.2119C198.678 33.6813 198.901 34.3535 198.901 35.2285V40H197.712V35.5156C197.712 34.8503 197.571 34.3581 197.288 34.0391C197.01 33.7155 196.577 33.5537 195.989 33.5537C195.597 33.5537 195.258 33.638 194.971 33.8066C194.684 33.9753 194.46 34.2145 194.301 34.5244C194.146 34.8343 194.068 35.2057 194.068 35.6387V40H192.879ZM205.02 40V32.6309H206.209V40H205.02ZM205.621 31.209C205.398 31.209 205.204 31.1292 205.04 30.9697C204.881 30.8057 204.801 30.612 204.801 30.3887C204.801 30.1608 204.881 29.9671 205.04 29.8076C205.204 29.6481 205.398 29.5684 205.621 29.5684C205.849 29.5684 206.043 29.6481 206.202 29.8076C206.362 29.9671 206.441 30.1608 206.441 30.3887C206.441 30.612 206.362 30.8057 206.202 30.9697C206.043 31.1292 205.849 31.209 205.621 31.209ZM208.451 40V32.6309H209.641V33.7383H209.75C209.937 33.3464 210.206 33.0433 210.557 32.8291C210.908 32.6104 211.354 32.501 211.896 32.501C212.726 32.501 213.362 32.738 213.804 33.2119C214.25 33.6813 214.474 34.3535 214.474 35.2285V40H213.284V35.5156C213.284 34.8503 213.143 34.3581 212.86 34.0391C212.582 33.7155 212.149 33.5537 211.562 33.5537C211.17 33.5537 210.83 33.638 210.543 33.8066C210.256 33.9753 210.033 34.2145 209.873 34.5244C209.718 34.8343 209.641 35.2057 209.641 35.6387V40H208.451ZM221.986 40L219.922 32.6309H221.111L222.561 38.5234H222.67L224.317 32.6309H225.445L227.093 38.5234H227.202L228.651 32.6309H229.834L227.77 40H226.573L224.926 34.2988H224.816L223.176 40H221.986ZM231.434 40V32.6309H232.623V40H231.434ZM232.035 31.209C231.812 31.209 231.618 31.1292 231.454 30.9697C231.295 30.8057 231.215 30.612 231.215 30.3887C231.215 30.1608 231.295 29.9671 231.454 29.8076C231.618 29.6481 231.812 29.5684 232.035 29.5684C232.263 29.5684 232.457 29.6481 232.616 29.8076C232.776 29.9671 232.855 30.1608 232.855 30.3887C232.855 30.612 232.776 30.8057 232.616 30.9697C232.457 31.1292 232.263 31.209 232.035 31.209ZM237.483 40.0547C236.727 40.0547 236.178 39.902 235.836 39.5967C235.499 39.2913 235.33 38.7878 235.33 38.0859V33.6152H234.168V32.6309H235.33V30.7236H236.561V32.6309H238.174V33.6152H236.561V37.7852C236.561 38.2181 236.643 38.5303 236.807 38.7217C236.971 38.9085 237.244 39.002 237.627 39.002C237.732 39.002 237.821 38.9997 237.894 38.9951C237.971 38.9906 238.064 38.9837 238.174 38.9746V39.9863C238.06 40.0046 237.946 40.0205 237.832 40.0342C237.718 40.0479 237.602 40.0547 237.483 40.0547ZM240.02 40V29.7051H241.209V33.7383H241.318C241.505 33.3464 241.774 33.0433 242.125 32.8291C242.476 32.6104 242.923 32.501 243.465 32.501C244.016 32.501 244.483 32.6081 244.866 32.8223C245.249 33.0319 245.541 33.3395 245.741 33.7451C245.942 34.1507 246.042 34.6452 246.042 35.2285V40H244.853V35.5156C244.853 34.8503 244.711 34.3581 244.429 34.0391C244.151 33.7155 243.718 33.5537 243.13 33.5537C242.738 33.5537 242.398 33.638 242.111 33.8066C241.824 33.9753 241.601 34.2145 241.441 34.5244C241.286 34.8343 241.209 35.2057 241.209 35.6387V40H240.02Z" fill="black"/>
<path d="M31 36.5H151" stroke="black" stroke-opacity="0.3"/>
<path d="M251 36.5H371.5" stroke="black" stroke-opacity="0.3"/>
</svg>
